<?xml version="1.0" encoding="utf-8"?>
<!-- Generator: Adobe Illustrator 23.0.3, SVG Export Plug-In . SVG Version: 6.00 Build 0)  -->
<svg version="1.1" id="Layer_1" xmlns="http://www.w3.org/2000/svg" xmlns:xlink="http://www.w3.org/1999/xlink" x="0px" y="0px"
	 viewBox="0 0 816.19 65.3" style="enable-background:new 0 0 816.19 65.3;" xml:space="preserve">
<style type="text/css">
	.st0{fill:#3D425B;}
	.st1{fill:#577982;}
	.st2{fill:#64A190;}
	.st3{fill:#40ABA6;}
	.st4{fill:#5DC1AF;}
	.st5{fill:#A0D4A8;}
	.st6{fill-rule:evenodd;clip-rule:evenodd;fill:#FFFFFF;}
	.st7{opacity:0.5;}
	.st8{fill:#FFFFFF;stroke:#FFFFFF;stroke-width:0.25;stroke-miterlimit:10;}
</style>
<rect x="728.91" y="246.37" class="st0" width="662.94" height="314.85"/>
<g>
	<g>
		<g>
			<g>
				<path class="st1" d="M49.16,9.73h-37.3C9.18,9.73,7,7.55,7,4.86v0C7,2.18,9.18,0,11.86,0l37.3,0c2.69,0,4.86,2.18,4.86,4.86v0
					C54.02,7.55,51.85,9.73,49.16,9.73z"/>
			</g>
			<g>
				<path class="st2" d="M42.16,23.62H4.86C2.18,23.62,0,21.44,0,18.76v0c0-2.69,2.18-4.86,4.86-4.86h37.3
					c2.69,0,4.86,2.18,4.86,4.86v0C47.02,21.44,44.85,23.62,42.16,23.62z"/>
			</g>
			<g>
				<path class="st3" d="M49.16,37.51h-37.3C9.18,37.51,7,35.33,7,32.65v0c0-2.69,2.18-4.86,4.86-4.86h37.3
					c2.69,0,4.86,2.18,4.86,4.86v0C54.02,35.33,51.85,37.51,49.16,37.51z"/>
			</g>
			<g>
				<path class="st4" d="M56.21,51.4h-37.3c-2.69,0-4.86-2.18-4.86-4.86v0c0-2.69,2.18-4.86,4.86-4.86h37.3
					c2.69,0,4.86,2.18,4.86,4.86v0C61.08,49.23,58.9,51.4,56.21,51.4z"/>
			</g>
			<g>
				<path class="st5" d="M49.16,65.3h-37.3C9.18,65.3,7,63.12,7,60.43v0c0-2.69,2.18-4.86,4.86-4.86h37.3
					c2.69,0,4.86,2.18,4.86,4.86v0C54.02,63.12,51.85,65.3,49.16,65.3z"/>
			</g>
		</g>
		<g>
			<g>
				<path class="st6" d="M92.89,15.18c-7.66,0.2-12.62,4.07-12.47,9.95c0.3,11.3,17.07,7.49,17.22,13.14
					c0.05,1.82-1.52,2.82-4.08,2.89c-3.33,0.09-8.3-1.7-11.66-4.48l-2.98,6.33c3.86,3,9.39,4.86,14.72,4.72
					c7.11-0.19,12.68-3.71,12.51-10.09c-0.3-11.53-17.09-7.95-17.23-13.46c-0.04-1.55,1.35-2.36,3.45-2.42
					c2.6-0.07,6.87,1.19,10.3,3.06l2.89-6.42C102.22,16.35,97.49,15.06,92.89,15.18L92.89,15.18L92.89,15.18z"/>
				<path class="st6" d="M132.21,15.08c-9.71,0-17.05,6.93-17.05,16.14c0,9.35,7.16,16.42,16.78,16.42c4.7,0,9.76-2.33,13.18-5.84
					l-4.74-5.02c-2.23,2.28-5.34,3.74-8.03,3.74c-5.06,0-8.89-4.06-8.89-9.39c0-5.24,3.83-9.26,8.89-9.26c2.83,0,5.93,1.6,8.03,4.15
					l4.7-5.56C141.87,17.18,136.95,15.08,132.21,15.08L132.21,15.08L132.21,15.08z"/>
				<path class="st6" d="M173.39,15.36h-8.34l-13.77,31.92h8.34l2.33-5.88h13.95l2.28,5.88h8.66L173.39,15.36z M164.31,35.24
					l4.65-11.81l4.56,11.81H164.31z"/>
				<polygon class="st6" points="204.76,40.69 204.76,15.57 196.64,15.57 196.64,47.49 218.3,47.49 218.3,40.69 204.76,40.69 				
					"/>
				<polygon class="st6" points="242.95,36.97 254.54,15.36 246.42,15.36 238.9,29.27 231.19,15.36 223.07,15.36 234.88,37.2 
					234.88,47.28 242.95,47.28 242.95,36.97 				"/>
				<path class="st6" d="M284.83,36.74c3.74-1.87,5.79-5.38,5.79-10.26c0-7.11-4.83-11.13-13.27-11.13h-14.27v31.92h8.12v-8.98h6.16
					h0.23l4.74,8.98h9.21L284.83,36.74z M276.72,31.91h-6.16V21.74h6.16c3.51,0,5.56,1.69,5.56,5.02
					C282.28,30.13,280.23,31.91,276.72,31.91z"/>
			</g>
		</g>
	</g>
	<g class="st7">
		<path class="st8" d="M320.12,48.32V16.93h13.22c10.5,0,17.79,6.26,17.79,15.67c0,9.5-7.29,15.72-17.74,15.72H320.12z M343.85,32.6
			c0-5.51-3.62-9.79-10.46-9.79h-6.13v19.62h6.08C339.98,42.44,343.85,37.97,343.85,32.6z"/>
		<path class="st8" d="M360.64,32.65c0-9.46,7.39-16.23,17.54-16.23c10.1,0,17.49,6.78,17.49,16.23c0,9.46-7.39,16.23-17.49,16.23
			C368.02,48.88,360.64,42.11,360.64,32.65z M388.33,32.65c0-5.88-3.97-10.31-10.15-10.31c-6.23,0-10.2,4.42-10.2,10.31
			c0,5.83,3.97,10.31,10.2,10.31C384.36,42.95,388.33,38.48,388.33,32.65z"/>
		<path class="st8" d="M405.12,32.65c0-9.69,7.79-16.23,17.89-16.23c7.34,0,11.61,3.72,13.97,7.67l-6.13,2.82
			c-1.41-2.54-4.42-4.56-7.84-4.56c-6.13,0-10.55,4.38-10.55,10.31c0,5.93,4.42,10.31,10.55,10.31c3.42,0,6.43-2.02,7.84-4.57
			l6.13,2.78c-2.36,3.91-6.63,7.72-13.97,7.72C412.91,48.88,405.12,42.3,405.12,32.65z"/>
		<path class="st8" d="M447.29,35.75V16.93h7.24v18.63c0,4.38,2.71,7.39,7.89,7.39s7.84-3.01,7.84-7.39V16.93h7.29v18.82
			c0,7.76-4.93,13.13-15.13,13.13S447.29,43.52,447.29,35.75z"/>
		<path class="st8" d="M519.36,48.32V25.68l-9.45,22.63h-3.12l-9.45-22.63v22.63h-7.14V16.93h10l8.14,19.62l8.14-19.62h10.05v31.39
			H519.36z"/>
		<path class="st8" d="M539.22,48.32V16.93h23.72v5.88h-16.59v6.59h16.24v5.88h-16.24v7.15h16.59v5.88H539.22z"/>
		<path class="st8" d="M597.67,48.32l-15.98-20.47v20.47h-7.14V16.93h7.34l15.53,19.72V16.93h7.14v31.39H597.67z"/>
		<path class="st8" d="M624.97,48.32v-25.5h-9.8v-5.88h26.74v5.88h-9.75v25.5H624.97z"/>
		<path class="st8" d="M672.46,48.32L670.35,43h-14.38l-2.11,5.32h-8.09l12.92-31.39h8.95l12.92,31.39H672.46z M663.17,23.61
			l-5.23,13.5h10.45L663.17,23.61z"/>
		<path class="st8" d="M694.23,48.32v-25.5h-9.8v-5.88h26.74v5.88h-9.75v25.5H694.23z"/>
		<path class="st8" d="M721.77,48.32V16.93h7.14v31.39H721.77z"/>
		<path class="st8" d="M739.97,32.65c0-9.46,7.39-16.23,17.54-16.23c10.1,0,17.49,6.78,17.49,16.23c0,9.46-7.39,16.23-17.49,16.23
			C747.36,48.88,739.97,42.11,739.97,32.65z M767.66,32.65c0-5.88-3.97-10.31-10.15-10.31c-6.23,0-10.2,4.42-10.2,10.31
			c0,5.83,3.97,10.31,10.2,10.31C763.69,42.95,767.66,38.48,767.66,32.65z"/>
		<path class="st8" d="M809.18,48.32l-15.98-20.47v20.47h-7.14V16.93h7.34l15.53,19.72V16.93h7.14v31.39H809.18z"/>
	</g>
</g>
</svg>
