<?xml version="1.0" encoding="utf-8"?>
<!-- Generator: Adobe Illustrator 23.0.3, SVG Export Plug-In . SVG Version: 6.00 Build 0)  -->
<svg version="1.1" id="Layer_1" xmlns="http://www.w3.org/2000/svg" xmlns:xlink="http://www.w3.org/1999/xlink" x="0px" y="0px"
	 viewBox="0 0 375.16 65.3" style="enable-background:new 0 0 375.16 65.3;" xml:space="preserve">
<style type="text/css">
	.st0{fill:#577982;}
	.st1{fill:#64A190;}
	.st2{fill:#40ABA6;}
	.st3{fill:#5DC1AF;}
	.st4{fill:#A0D4A8;}
	.st5{fill-rule:evenodd;clip-rule:evenodd;fill:#FFFFFF;}
</style>
<g>
	<g>
		<g>
			<path class="st0" d="M49.16,9.73h-37.3C9.18,9.73,7,7.55,7,4.86v0C7,2.18,9.18,0,11.86,0l37.3,0c2.69,0,4.86,2.18,4.86,4.86v0
				C54.02,7.55,51.85,9.73,49.16,9.73z"/>
		</g>
		<g>
			<path class="st1" d="M42.16,23.62H4.86C2.18,23.62,0,21.44,0,18.76v0c0-2.69,2.18-4.86,4.86-4.86h37.3
				c2.69,0,4.86,2.18,4.86,4.86v0C47.02,21.44,44.85,23.62,42.16,23.62z"/>
		</g>
		<g>
			<path class="st2" d="M49.16,37.51h-37.3C9.18,37.51,7,35.33,7,32.65v0c0-2.69,2.18-4.86,4.86-4.86h37.3
				c2.69,0,4.86,2.18,4.86,4.86v0C54.02,35.33,51.85,37.51,49.16,37.51z"/>
		</g>
		<g>
			<path class="st3" d="M56.21,51.4h-37.3c-2.69,0-4.86-2.18-4.86-4.86v0c0-2.69,2.18-4.86,4.86-4.86h37.3
				c2.69,0,4.86,2.18,4.86,4.86v0C61.08,49.23,58.9,51.4,56.21,51.4z"/>
		</g>
		<g>
			<path class="st4" d="M49.16,65.3h-37.3C9.18,65.3,7,63.12,7,60.43v0c0-2.69,2.18-4.86,4.86-4.86h37.3c2.69,0,4.86,2.18,4.86,4.86
				v0C54.02,63.12,51.85,65.3,49.16,65.3z"/>
		</g>
	</g>
	<g>
		<g>
			<path class="st5" d="M92.89,15.18c-7.66,0.2-12.62,4.07-12.47,9.95c0.3,11.3,17.07,7.49,17.22,13.14
				c0.05,1.82-1.52,2.82-4.08,2.89c-3.33,0.09-8.3-1.7-11.66-4.48l-2.98,6.33c3.86,3,9.39,4.86,14.72,4.72
				c7.11-0.19,12.68-3.71,12.51-10.09c-0.3-11.53-17.09-7.95-17.23-13.46c-0.04-1.55,1.35-2.36,3.45-2.42
				c2.6-0.07,6.87,1.19,10.3,3.06l2.89-6.42C102.22,16.35,97.49,15.06,92.89,15.18L92.89,15.18L92.89,15.18z"/>
			<path class="st5" d="M132.21,15.08c-9.71,0-17.05,6.93-17.05,16.14c0,9.35,7.16,16.42,16.78,16.42c4.7,0,9.76-2.33,13.18-5.84
				l-4.74-5.02c-2.23,2.28-5.34,3.74-8.03,3.74c-5.06,0-8.89-4.06-8.89-9.39c0-5.24,3.83-9.26,8.89-9.26c2.83,0,5.93,1.6,8.03,4.15
				l4.7-5.56C141.87,17.18,136.95,15.08,132.21,15.08L132.21,15.08L132.21,15.08z"/>
			<path class="st5" d="M173.39,15.36h-8.34l-13.77,31.92h8.34l2.33-5.88h13.95l2.28,5.88h8.66L173.39,15.36z M164.31,35.24
				l4.65-11.81l4.56,11.81H164.31z"/>
			<polygon class="st5" points="204.76,40.69 204.76,15.57 196.64,15.57 196.64,47.49 218.3,47.49 218.3,40.69 204.76,40.69 			"/>
			<polygon class="st5" points="242.95,36.97 254.54,15.36 246.42,15.36 238.9,29.27 231.19,15.36 223.07,15.36 234.88,37.2 
				234.88,47.28 242.95,47.28 242.95,36.97 			"/>
			<path class="st5" d="M284.83,36.74c3.74-1.87,5.79-5.38,5.79-10.26c0-7.11-4.83-11.13-13.27-11.13h-14.27v31.92h8.12v-8.98h6.16
				h0.23l4.74,8.98h9.21L284.83,36.74z M276.72,31.91h-6.16V21.74h6.16c3.51,0,5.56,1.69,5.56,5.02
				C282.28,30.13,280.23,31.91,276.72,31.91z"/>
		</g>
	</g>
</g>
</svg>
